<?xml version="1.0" encoding="utf-8"?>
<!-- Generator: Adobe Illustrator 24.1.2, SVG Export Plug-In . SVG Version: 6.00 Build 0)  -->
<svg version="1.1" id="图层_2" xmlns="http://www.w3.org/2000/svg" xmlns:xlink="http://www.w3.org/1999/xlink" x="0px" y="0px"
	 viewBox="0 0 2000 2000" style="enable-background:new 0 0 2000 2000;" xml:space="preserve">
<style type="text/css">
	.st0{fill:url(#SVGID_1_);}
	.st1{fill:url(#SVGID_2_);}
	.st2{fill:url(#SVGID_3_);}
	.st3{fill:url(#SVGID_4_);}
	.st4{fill:url(#SVGID_5_);}
	.st5{fill:url(#SVGID_6_);}
	.st6{fill:url(#SVGID_7_);}
	.st7{fill:url(#SVGID_8_);}
	.st8{fill:url(#SVGID_9_);}
	.st9{fill:url(#SVGID_10_);}
	.st10{fill:url(#SVGID_11_);}
	.st11{fill:url(#SVGID_12_);}
	.st12{fill:url(#SVGID_13_);}
	.st13{fill:url(#SVGID_14_);}
	.st14{fill:url(#SVGID_15_);}
	.st15{fill:url(#SVGID_16_);}
	.st16{fill:url(#SVGID_17_);}
	.st17{fill:url(#SVGID_18_);}
	.st18{fill:url(#SVGID_19_);}
	.st19{fill:url(#SVGID_20_);}
	.st20{fill:url(#SVGID_21_);}
	.st21{fill:url(#SVGID_22_);}
	.st22{fill:url(#SVGID_23_);}
	.st23{fill:url(#SVGID_24_);}
	.st24{fill:url(#SVGID_25_);}
	.st25{fill:url(#SVGID_26_);}
	.st26{fill:url(#SVGID_27_);}
	.st27{fill:url(#SVGID_28_);}
	.st28{fill:url(#SVGID_29_);}
	.st29{fill:url(#SVGID_30_);}
	.st30{fill:url(#SVGID_31_);}
	.st31{fill:url(#SVGID_32_);}
	.st32{fill:url(#SVGID_33_);}
	.st33{fill:url(#SVGID_34_);}
	.st34{fill:url(#SVGID_35_);}
	.st35{fill:url(#SVGID_36_);}
	.st36{fill:url(#SVGID_37_);}
	.st37{fill:url(#SVGID_38_);}
	.st38{fill:url(#SVGID_39_);}
	.st39{fill:url(#SVGID_40_);}
	.st40{fill:url(#SVGID_41_);}
	.st41{fill:url(#SVGID_42_);}
	.st42{fill:url(#SVGID_43_);}
	.st43{fill:url(#SVGID_44_);}
	.st44{fill:url(#SVGID_45_);}
	.st45{fill:url(#SVGID_46_);}
	.st46{fill:url(#SVGID_47_);}
	.st47{fill:url(#SVGID_48_);}
	.st48{fill:url(#SVGID_49_);}
	.st49{fill:url(#SVGID_50_);}
	.st50{fill:url(#SVGID_51_);}
	.st51{fill:url(#SVGID_52_);}
	.st52{fill:url(#SVGID_53_);}
	.st53{fill:url(#SVGID_54_);}
	.st54{fill:url(#SVGID_55_);}
	.st55{fill:url(#SVGID_56_);}
	.st56{fill:url(#SVGID_57_);}
	.st57{fill:url(#SVGID_58_);}
	.st58{fill:url(#SVGID_59_);}
	.st59{fill:url(#SVGID_60_);}
	.st60{fill:url(#SVGID_61_);}
	.st61{fill:url(#SVGID_62_);}
	.st62{fill:url(#SVGID_63_);}
	.st63{fill:url(#SVGID_64_);}
	.st64{fill:url(#SVGID_65_);}
	.st65{fill:url(#SVGID_66_);}
	.st66{fill:url(#SVGID_67_);}
	.st67{fill:url(#SVGID_68_);}
	.st68{fill:url(#SVGID_69_);}
	.st69{fill:url(#SVGID_70_);}
	.st70{fill:url(#SVGID_71_);}
	.st71{fill:url(#SVGID_72_);}
	.st72{fill:url(#SVGID_73_);}
	.st73{fill:url(#SVGID_74_);}
	.st74{fill:url(#SVGID_75_);}
	.st75{fill:url(#SVGID_76_);}
	.st76{fill:url(#SVGID_77_);}
	.st77{fill:url(#SVGID_78_);}
	.st78{fill:url(#SVGID_79_);}
	.st79{fill:url(#SVGID_80_);}
	.st80{fill:url(#SVGID_81_);}
	.st81{fill:url(#SVGID_82_);}
	.st82{fill:url(#SVGID_83_);}
	.st83{fill:url(#SVGID_84_);}
	.st84{fill:url(#SVGID_85_);}
	.st85{fill:url(#SVGID_86_);}
	.st86{fill:url(#SVGID_87_);}
	.st87{fill:url(#SVGID_88_);}
	.st88{fill:url(#SVGID_89_);}
	.st89{fill:url(#SVGID_90_);}
	.st90{fill:url(#SVGID_91_);}
	.st91{fill:url(#SVGID_92_);}
	.st92{fill:url(#SVGID_93_);}
	.st93{fill:url(#SVGID_94_);}
	.st94{fill:url(#SVGID_95_);}
	.st95{fill:url(#SVGID_96_);}
	.st96{fill:url(#SVGID_97_);}
	.st97{fill:url(#SVGID_98_);}
	.st98{fill:url(#SVGID_99_);}
	.st99{fill:url(#SVGID_100_);}
	.st100{fill:url(#SVGID_101_);}
	.st101{fill:url(#SVGID_102_);}
	.st102{fill:url(#SVGID_103_);}
	.st103{fill:url(#SVGID_104_);}
	.st104{fill:url(#SVGID_105_);}
	.st105{fill:url(#SVGID_106_);}
	.st106{fill:url(#SVGID_107_);}
	.st107{fill:url(#SVGID_108_);}
	.st108{fill:url(#SVGID_109_);}
	.st109{fill:url(#SVGID_110_);}
	.st110{fill:url(#SVGID_111_);}
	.st111{fill:url(#SVGID_112_);}
	.st112{fill:url(#SVGID_113_);}
	.st113{fill:url(#SVGID_114_);}
	.st114{fill:url(#SVGID_115_);}
	.st115{fill:url(#SVGID_116_);}
	.st116{fill:url(#SVGID_117_);}
	.st117{fill:url(#SVGID_118_);}
	.st118{fill:url(#SVGID_119_);}
	.st119{fill:url(#SVGID_120_);}
</style>
<g>
	<linearGradient id="SVGID_1_" gradientUnits="userSpaceOnUse" x1="656.1105" y1="747.8359" x2="733.6096" y2="747.8359">
		<stop  offset="0.0252" style="stop-color:#77C9FF"/>
		<stop  offset="1" style="stop-color:#008AEB"/>
	</linearGradient>
	<path class="st0" d="M656.11,717.16l62.68,76.25c4.86-4.02,9.77-7.88,14.82-11.61l-58.68-79.54L656.11,717.16z"/>
	<linearGradient id="SVGID_2_" gradientUnits="userSpaceOnUse" x1="623.0378" y1="773.782" x2="706.4375" y2="773.782">
		<stop  offset="0.0252" style="stop-color:#77C9FF"/>
		<stop  offset="1" style="stop-color:#008AEB"/>
	</linearGradient>
	<path class="st1" d="M623.04,747.19l69.77,69.82c4.45-4.47,8.98-8.78,13.63-12.93l-66.2-73.55L623.04,747.19z"/>
	<linearGradient id="SVGID_3_" gradientUnits="userSpaceOnUse" x1="566.3563" y1="833.8719" x2="659.1469" y2="833.8719">
		<stop  offset="0.0252" style="stop-color:#77C9FF"/>
		<stop  offset="1" style="stop-color:#008AEB"/>
	</linearGradient>
	<path class="st2" d="M566.36,816.16l81.97,55.13c3.49-5.22,7.09-10.38,10.82-15.41l-79.29-59.42L566.36,816.16z"/>
	<linearGradient id="SVGID_4_" gradientUnits="userSpaceOnUse" x1="543.0306" y1="867.3651" x2="639.4984" y2="867.3651">
		<stop  offset="0.0252" style="stop-color:#77C9FF"/>
		<stop  offset="1" style="stop-color:#008AEB"/>
	</linearGradient>
	<path class="st3" d="M543.03,854.18l87.06,47.2c2.96-5.51,6.13-10.97,9.41-16.35l-84.76-51.67L543.03,854.18z"/>
	<linearGradient id="SVGID_5_" gradientUnits="userSpaceOnUse" x1="592.9993" y1="802.5711" x2="681.5284" y2="802.5711">
		<stop  offset="0.0252" style="stop-color:#77C9FF"/>
		<stop  offset="1" style="stop-color:#008AEB"/>
	</linearGradient>
	<path class="st4" d="M593,780.33l76.25,62.75c4.02-4.88,8.09-9.64,12.27-14.25l-73.1-66.77L593,780.33z"/>
	<linearGradient id="SVGID_6_" gradientUnits="userSpaceOnUse" x1="523.4584" y1="902.8099" x2="622.7172" y2="902.8099">
		<stop  offset="0.0252" style="stop-color:#77C9FF"/>
		<stop  offset="1" style="stop-color:#008AEB"/>
	</linearGradient>
	<path class="st5" d="M523.46,894.26l91.49,38.75c2.39-5.73,5.02-11.45,7.77-17.12l-89.15-43.28L523.46,894.26z"/>
	<linearGradient id="SVGID_7_" gradientUnits="userSpaceOnUse" x1="854.2603" y1="1051.5133" x2="1045.5045" y2="1051.5133">
		<stop  offset="0.0252" style="stop-color:#77C9FF"/>
		<stop  offset="1" style="stop-color:#008AEB"/>
	</linearGradient>
	<path class="st6" d="M987,985.75c-11.71-4.99-24.51-7.51-37.32-7.51c-14.86,0-29.72,3.39-42.93,10.27
		c-15.88,7.96-29.38,20.6-38.67,35.84c-5.07,8.35-8.9,17.57-11.16,27.12c-1.72,8.33-3.04,16.82-2.55,25.41l36.2-1.15
		c-0.42-5.34,0.62-10.6,1.56-15.85h-0.04c1.43-5.94,3.81-11.57,6.94-16.74c5.79-9.45,14.16-17.28,24.08-22.34
		c8.2-4.25,17.33-6.35,26.49-6.35c7.98,0,15.95,1.58,23.34,4.72c15.88,6.39,28.49,20.4,33.53,36.85c5.19,15.85,3,34.03-5.7,48.31
		l-0.66,1.11l30.57,19.33c0.41-0.58,0.79-1.2,1.15-1.8c14.1-23.08,17.5-52.09,9.22-77.83C1032.87,1018.71,1012.72,996.27,987,985.75
		z"/>
	<linearGradient id="SVGID_8_" gradientUnits="userSpaceOnUse" x1="660.8624" y1="946.1317" x2="763.7416" y2="946.1317">
		<stop  offset="0.0252" style="stop-color:#77C9FF"/>
		<stop  offset="1" style="stop-color:#008AEB"/>
	</linearGradient>
	<path class="st7" d="M700.65,921.69c-20.06,32.91-33.83,69.68-39.79,107.87l18.82,2.91c5.58-35.75,18.46-70.15,37.22-100.94
		c12.97-21.26,28.74-40.79,46.84-57.87l-12.94-13.87C731.4,878.06,714.53,898.94,700.65,921.69z"/>
	<linearGradient id="SVGID_9_" gradientUnits="userSpaceOnUse" x1="593.7165" y1="1093.5627" x2="810.4666" y2="1093.5627">
		<stop  offset="0.0252" style="stop-color:#77C9FF"/>
		<stop  offset="1" style="stop-color:#008AEB"/>
	</linearGradient>
	<path class="st8" d="M646.31,887.79c-40.14,65.87-59.06,144.81-50.61,221.72c10.35,116.7,83.95,225.75,188.15,279.28l26.62-50.4
		c-87.7-45.1-149.3-136.4-158.03-234.61c-7.15-64.45,8.73-130.86,42.46-186.19c17.42-28.57,39.58-54.18,65.81-75.08l-36.09-44.16
		C693.43,823.26,667.05,853.79,646.31,887.79z"/>
	<linearGradient id="SVGID_10_" gradientUnits="userSpaceOnUse" x1="858.5875" y1="1122.2755" x2="916.8716" y2="1122.2755">
		<stop  offset="0.0252" style="stop-color:#77C9FF"/>
		<stop  offset="1" style="stop-color:#008AEB"/>
	</linearGradient>
	<path class="st9" d="M896.77,1153.22l20.1-30.13c-11.14-7.42-19.78-18.84-23.68-31.76l-34.6,10.76
		C864.9,1122.85,878.67,1141.2,896.77,1153.22z"/>
	<linearGradient id="SVGID_11_" gradientUnits="userSpaceOnUse" x1="1404.4896" y1="1557.6058" x2="1494.546" y2="1557.6058">
		<stop  offset="0.0252" style="stop-color:#77C9FF"/>
		<stop  offset="1" style="stop-color:#008AEB"/>
	</linearGradient>
	<path class="st10" d="M1494.55,1563.47l-56.55-50.68c-10.43,12.31-22.18,23.35-33.51,34.85l52.7,54.79
		C1469.84,1589.62,1482.89,1577.17,1494.55,1563.47z"/>
	<linearGradient id="SVGID_12_" gradientUnits="userSpaceOnUse" x1="1464.9989" y1="1484.6091" x2="1556.6204" y2="1484.6091">
		<stop  offset="0.0252" style="stop-color:#77C9FF"/>
		<stop  offset="1" style="stop-color:#008AEB"/>
	</linearGradient>
	<path class="st11" d="M1556.62,1484.13l-63.02-42.51c-9.39,13.08-18.25,26.61-28.6,38.99l59.77,47
		C1536.22,1513.77,1546.19,1498.74,1556.62,1484.13z"/>
	<linearGradient id="SVGID_13_" gradientUnits="userSpaceOnUse" x1="1225.2438" y1="811.7021" x2="1314.8107" y2="811.7021">
		<stop  offset="0.0252" style="stop-color:#77C9FF"/>
		<stop  offset="1" style="stop-color:#008AEB"/>
	</linearGradient>
	<path class="st12" d="M1225.24,836.6c4.13,4.76,8.05,9.64,11.92,14.57l77.65-60.21l-14.93-18.72L1225.24,836.6z"/>
	<linearGradient id="SVGID_14_" gradientUnits="userSpaceOnUse" x1="1201.0327" y1="782.1735" x2="1285.7155" y2="782.1735">
		<stop  offset="0.0252" style="stop-color:#77C9FF"/>
		<stop  offset="1" style="stop-color:#008AEB"/>
	</linearGradient>
	<path class="st13" d="M1201.03,811.11c4.56,4.39,8.96,8.83,13.27,13.38l71.41-67.51l-16.74-17.11L1201.03,811.11z"/>
	<g>
		<linearGradient id="SVGID_15_" gradientUnits="userSpaceOnUse" x1="944.8729" y1="1111.4193" x2="1119.126" y2="1111.4193">
			<stop  offset="0.0252" style="stop-color:#77C9FF"/>
			<stop  offset="1" style="stop-color:#008AEB"/>
		</linearGradient>
		<path class="st14" d="M1032.54,1018.63c23.4,32.19,20.89,75.44,1.15,107.79c-13.26,21.71-34.22,38.55-60.32,43.78
			c-7.52,1.39-15.03,2.81-22.59,2.81c-1.28,0-2.56-0.04-3.85-0.13l-2.06,69.95c2.07,0.11,4.15,0.17,6.22,0.17
			c13.05,0,26.04-2.11,38.73-4.77c43.33-10.3,81.74-38.83,104.82-76.72c5.09-8.29,9.39-17.06,12.9-26.18
			c20.03-50.52,13.86-110.46-16.76-155.49L1032.54,1018.63z"/>
		<linearGradient id="SVGID_16_" gradientUnits="userSpaceOnUse" x1="780.612" y1="1082.9749" x2="903.6722" y2="1082.9749">
			<stop  offset="0.0252" style="stop-color:#77C9FF"/>
			<stop  offset="1" style="stop-color:#008AEB"/>
		</linearGradient>
		<path class="st15" d="M865.09,1021.05c5.62-9.19,12.95-17.48,22.06-24.29l-44.31-54.18c-14.82,11.87-27.4,26.35-37.24,42.52
			c-19.08,31.31-28.08,68.8-24.04,105.44c4.92,55.38,39.92,107.38,89.43,132.82l32.68-61.94
			C852.03,1136.97,836.88,1067.31,865.09,1021.05z"/>
		<linearGradient id="SVGID_17_" gradientUnits="userSpaceOnUse" x1="911.2904" y1="944.2887" x2="1023.767" y2="944.2887">
			<stop  offset="0.0252" style="stop-color:#77C9FF"/>
			<stop  offset="1" style="stop-color:#008AEB"/>
		</linearGradient>
		<path class="st16" d="M911.29,908.79l15.97,68.14c7.41-1.72,14.95-2.55,22.48-2.55c14.95,0,29.87,3.35,43.48,9.82l30.55-62.97
			c-22.99-11.12-48.57-16.85-74.12-16.85C936.75,904.38,923.85,905.84,911.29,908.79z"/>
	</g>
	<linearGradient id="SVGID_18_" gradientUnits="userSpaceOnUse" x1="1265.7281" y1="877.9525" x2="1362.4219" y2="877.9525">
		<stop  offset="0.0252" style="stop-color:#77C9FF"/>
		<stop  offset="1" style="stop-color:#008AEB"/>
	</linearGradient>
	<path class="st17" d="M1265.73,894.03c3.07,5.48,6,10.99,8.82,16.61l87.87-44.16l-11.03-21.21L1265.73,894.03z"/>
	<linearGradient id="SVGID_19_" gradientUnits="userSpaceOnUse" x1="1246.8337" y1="843.7333" x2="1340.4738" y2="843.7333">
		<stop  offset="0.0252" style="stop-color:#77C9FF"/>
		<stop  offset="1" style="stop-color:#008AEB"/>
	</linearGradient>
	<path class="st18" d="M1246.83,864.31c3.68,5.12,7.11,10.36,10.48,15.67l83.16-52.41l-13.05-20.08L1246.83,864.31z"/>
	<linearGradient id="SVGID_20_" gradientUnits="userSpaceOnUse" x1="939.0842" y1="1153.4402" x2="1305.6002" y2="1153.4402">
		<stop  offset="0.0252" style="stop-color:#77C9FF"/>
		<stop  offset="1" style="stop-color:#008AEB"/>
	</linearGradient>
	<path class="st19" d="M1228.17,1182.82c-6.18,16.17-13.84,31.64-22.78,46.3c-40.84,67.02-108.48,117.15-185.15,135.61
		c-22.42,4.36-45.14,8.34-67.96,8.35c-3.83,0-7.64-0.12-11.46-0.35l-1.73,56.96c4.49,0.26,8.96,0.39,13.43,0.39
		c27.36,0,54.51-4.55,81.14-9.97c91.26-21.81,171.91-81.68,220.5-161.41c10.64-17.48,19.74-35.86,27.1-55.03
		c42.07-106.15,29.21-232.36-35.26-326.88l-47.46,31.59C1252.72,987.6,1263.47,1093.91,1228.17,1182.82z"/>
	<linearGradient id="SVGID_21_" gradientUnits="userSpaceOnUse" x1="1310.8312" y1="1111.792" x2="1411.1462" y2="1111.792">
		<stop  offset="0.0252" style="stop-color:#77C9FF"/>
		<stop  offset="1" style="stop-color:#008AEB"/>
	</linearGradient>
	<path class="st20" d="M1411.15,1102.9l-98.64-6.02c-0.36,6.23-0.98,12.47-1.68,18.71l97.98,11.13L1411.15,1102.9z"/>
	<linearGradient id="SVGID_22_" gradientUnits="userSpaceOnUse" x1="1281.567" y1="913.9727" x2="1380.5237" y2="913.9727">
		<stop  offset="0.0252" style="stop-color:#77C9FF"/>
		<stop  offset="1" style="stop-color:#008AEB"/>
	</linearGradient>
	<path class="st21" d="M1281.57,925.42c2.55,5.75,4.96,11.49,7.18,17.37l91.77-35.47l-8.94-22.17L1281.57,925.42z"/>
	<linearGradient id="SVGID_23_" gradientUnits="userSpaceOnUse" x1="1249.9646" y1="1298.5706" x2="1344.9418" y2="1298.5706">
		<stop  offset="0.0252" style="stop-color:#77C9FF"/>
		<stop  offset="1" style="stop-color:#008AEB"/>
	</linearGradient>
	<path class="st22" d="M1344.94,1314.24l-84.76-51.42l-0.04,0.03c-3.24,5.34-6.66,10.64-10.18,15.77l82,55.69L1344.94,1314.24z"/>
	<linearGradient id="SVGID_24_" gradientUnits="userSpaceOnUse" x1="1305.1371" y1="1151.3138" x2="1406.2245" y2="1151.3138">
		<stop  offset="0.0252" style="stop-color:#77C9FF"/>
		<stop  offset="1" style="stop-color:#008AEB"/>
	</linearGradient>
	<path class="st23" d="M1406.22,1147.36l-97.66-15.6c-0.96,6.2-2.17,12.32-3.43,18.47l96.45,20.65L1406.22,1147.36z"/>
	<linearGradient id="SVGID_25_" gradientUnits="userSpaceOnUse" x1="1283.7355" y1="1227.7615" x2="1383.6537" y2="1227.7615">
		<stop  offset="0.0252" style="stop-color:#77C9FF"/>
		<stop  offset="1" style="stop-color:#008AEB"/>
	</linearGradient>
	<path class="st24" d="M1383.65,1233.83l-92.89-34.27c-2.19,5.91-4.53,11.69-7.03,17.49l90.72,38.91L1383.65,1233.83z"/>
	<linearGradient id="SVGID_26_" gradientUnits="userSpaceOnUse" x1="1313.0188" y1="1070.1433" x2="1411.7303" y2="1070.1433">
		<stop  offset="0.0252" style="stop-color:#77C9FF"/>
		<stop  offset="1" style="stop-color:#008AEB"/>
	</linearGradient>
	<path class="st25" d="M1411.73,1058.2l-98.71,3.49c0.21,6.29,0.28,12.57,0.15,18.85l98.54,1.56L1411.73,1058.2z"/>
	<linearGradient id="SVGID_27_" gradientUnits="userSpaceOnUse" x1="1268.3494" y1="1263.9932" x2="1366.2499" y2="1263.9932">
		<stop  offset="0.0252" style="stop-color:#77C9FF"/>
		<stop  offset="1" style="stop-color:#008AEB"/>
	</linearGradient>
	<path class="st26" d="M1366.25,1275l-89.23-43.09c-2.75,5.62-5.64,11.2-8.67,16.74l86.57,47.42L1366.25,1275z"/>
	<linearGradient id="SVGID_28_" gradientUnits="userSpaceOnUse" x1="1294.3329" y1="951.4869" x2="1394.6094" y2="951.4869">
		<stop  offset="0.0252" style="stop-color:#77C9FF"/>
		<stop  offset="1" style="stop-color:#008AEB"/>
	</linearGradient>
	<path class="st27" d="M1294.33,958.18c2.02,6,3.83,11.94,5.51,18.02l94.77-26.52l-6.77-22.89L1294.33,958.18z"/>
	<linearGradient id="SVGID_29_" gradientUnits="userSpaceOnUse" x1="1303.8926" y1="990.1279" x2="1404.5842" y2="990.1279">
		<stop  offset="0.0252" style="stop-color:#77C9FF"/>
		<stop  offset="1" style="stop-color:#008AEB"/>
	</linearGradient>
	<path class="st28" d="M1303.89,992.04c1.41,6.15,2.64,12.28,3.73,18.46l96.96-17.31l-4.56-23.44L1303.89,992.04z"/>
	<linearGradient id="SVGID_30_" gradientUnits="userSpaceOnUse" x1="1228.8265" y1="1330.9038" x2="1319.8638" y2="1330.9038">
		<stop  offset="0.0252" style="stop-color:#77C9FF"/>
		<stop  offset="1" style="stop-color:#008AEB"/>
	</linearGradient>
	<path class="st29" d="M1319.86,1351.18l-79.42-59.31c-3.77,5.04-7.62,9.97-11.62,14.74l76.27,63.32
		C1310.34,1363.91,1315.19,1357.59,1319.86,1351.18z"/>
	<linearGradient id="SVGID_31_" gradientUnits="userSpaceOnUse" x1="1205.0682" y1="1360.965" x2="1291.5043" y2="1360.965">
		<stop  offset="0.0252" style="stop-color:#77C9FF"/>
		<stop  offset="1" style="stop-color:#008AEB"/>
	</linearGradient>
	<path class="st30" d="M1205.07,1332.47l69.94,70.57l16.5-17.34l-73.41-66.81C1213.84,1323.53,1209.5,1328.04,1205.07,1332.47z"/>
	<linearGradient id="SVGID_32_" gradientUnits="userSpaceOnUse" x1="1310.1342" y1="1029.5319" x2="1410.2976" y2="1029.5319">
		<stop  offset="0.0252" style="stop-color:#77C9FF"/>
		<stop  offset="1" style="stop-color:#008AEB"/>
	</linearGradient>
	<path class="st31" d="M1310.13,1026.64c0.83,6.24,1.45,12.48,1.94,18.75l98.22-7.92l-2.3-23.81L1310.13,1026.64z"/>
	<linearGradient id="SVGID_33_" gradientUnits="userSpaceOnUse" x1="1296.0669" y1="1190.101" x2="1397.0229" y2="1190.101">
		<stop  offset="0.0252" style="stop-color:#77C9FF"/>
		<stop  offset="1" style="stop-color:#008AEB"/>
	</linearGradient>
	<path class="st32" d="M1397.02,1191.14l-95.66-25.03c-1.62,6.03-3.38,12.07-5.3,18.05l94.04,29.93L1397.02,1191.14z"/>
	<linearGradient id="SVGID_34_" gradientUnits="userSpaceOnUse" x1="765.6271" y1="1317.1344" x2="856.2116" y2="1317.1344">
		<stop  offset="0.0252" style="stop-color:#77C9FF"/>
		<stop  offset="1" style="stop-color:#008AEB"/>
	</linearGradient>
	<path class="st33" d="M765.63,1300.61c25.19,20.28,53.53,36.99,84.06,47.82l6.52-17.85c-28.6-10.14-55.08-25.74-78.59-44.75
		L765.63,1300.61z"/>
	<linearGradient id="SVGID_35_" gradientUnits="userSpaceOnUse" x1="1024.1812" y1="1284.3628" x2="1200.7499" y2="1284.3628">
		<stop  offset="0.0252" style="stop-color:#77C9FF"/>
		<stop  offset="1" style="stop-color:#008AEB"/>
	</linearGradient>
	<path class="st34" d="M1182.78,1216.6c-31.89,52.33-82.02,92.69-139.4,114.07l-19.2,5.9l5.17,18.31l20.55-6.36
		c61.32-22.83,114.98-66.08,149.13-122.07c0.57-0.94,1.15-1.93,1.72-2.88l-16.29-9.73
		C1183.87,1214.75,1183.31,1215.69,1182.78,1216.6z"/>
	<linearGradient id="SVGID_36_" gradientUnits="userSpaceOnUse" x1="693.1154" y1="983.1603" x2="975.703" y2="983.1603">
		<stop  offset="0.0252" style="stop-color:#77C9FF"/>
		<stop  offset="1" style="stop-color:#008AEB"/>
	</linearGradient>
	<path class="st35" d="M751.18,911.14c-7.64,9.15-14.54,18.85-20.72,28.97c-37.69,61.78-47.95,140.38-25.74,209.45l72.65-22.49
		c-15.69-48.76-8.6-103.73,17.97-147.27c4.39-7.19,9.32-14.1,14.73-20.57c33.19-41.47,86.06-66.45,139.21-66.45
		c6.28,0,12.56,0.36,18.82,1.07l7.6-75.65c-8.79-0.99-17.61-1.46-26.44-1.46C873.71,816.76,798.66,852,751.18,911.14z"/>
	<linearGradient id="SVGID_37_" gradientUnits="userSpaceOnUse" x1="763.0813" y1="1219.7383" x2="1201.6168" y2="1219.7383">
		<stop  offset="0.0252" style="stop-color:#77C9FF"/>
		<stop  offset="1" style="stop-color:#008AEB"/>
	</linearGradient>
	<path class="st36" d="M1104.62,1167.19c-19.27,31.6-48.27,57.38-82.18,72.03c-22.8,10.1-47.52,15.08-72.24,15.07
		c-33.02,0-66.03-8.88-94.41-26.24c-13.37-9.03-26.79-18.34-37.43-30.52l-55.29,52.11c15.31,17.21,34.07,30.79,53.12,43.35
		c40.14,24.68,87.17,37.32,134.14,37.32c35.17,0,70.31-7.08,102.52-21.48c48.37-20.89,89.43-57.43,116.78-102.24
		c15.39-25.29,26.44-53.2,31.98-82.46l-74.54-14.95C1123.25,1129.7,1115.46,1149.36,1104.62,1167.19z"/>
	<linearGradient id="SVGID_38_" gradientUnits="userSpaceOnUse" x1="1561.9949" y1="846.1613" x2="1650.5239" y2="846.1613">
		<stop  offset="0.0252" style="stop-color:#77C9FF"/>
		<stop  offset="1" style="stop-color:#008AEB"/>
	</linearGradient>
	<path class="st37" d="M1577.8,882.7l72.73-22.09c-5.3-17.19-11.03-34.22-17.61-50.98l-70.92,27.38
		C1567.9,851.99,1573.06,867.26,1577.8,882.7z"/>
	<linearGradient id="SVGID_39_" gradientUnits="userSpaceOnUse" x1="1523.7358" y1="758.3298" x2="1614.7731" y2="758.3298">
		<stop  offset="0.0252" style="stop-color:#77C9FF"/>
		<stop  offset="1" style="stop-color:#008AEB"/>
	</linearGradient>
	<path class="st38" d="M1614.77,766.41c-7.88-16.17-15.54-32.42-24.49-48.02l-66.54,36.81c8.05,14,14.93,28.58,22.01,43.07
		L1614.77,766.41z"/>
	<linearGradient id="SVGID_40_" gradientUnits="userSpaceOnUse" x1="302.5492" y1="856.028" x2="993.5973" y2="856.028">
		<stop  offset="0.0252" style="stop-color:#77C9FF"/>
		<stop  offset="1" style="stop-color:#008AEB"/>
	</linearGradient>
	<path class="st39" d="M338.25,1285.56l165.88-57.34c-46.54-131.06-29.72-280.93,42.39-399.21c8.75-14.36,18.31-28.24,28.66-41.53
		c86.59-115.49,229.69-185.36,373.95-185.37c10.92,0,21.8,0.4,32.68,1.2l11.79-175.15c-14.93-1.08-29.91-1.63-44.84-1.64
		c-197.91,0-393.75,95.58-513.13,254.54c-14.16,18.19-27.27,37.15-39.24,56.77C297.75,899.65,274.33,1106.55,338.25,1285.56z"/>
	<linearGradient id="SVGID_41_" gradientUnits="userSpaceOnUse" x1="262" y1="808.7697" x2="351.8115" y2="808.7697">
		<stop  offset="0.0252" style="stop-color:#77C9FF"/>
		<stop  offset="1" style="stop-color:#008AEB"/>
	</linearGradient>
	<path class="st40" d="M351.81,802.24l-69.16-31.56c-7.64,16.3-14.29,33.05-20.65,49.87l71.33,26.31
		C339.08,831.79,344.95,816.86,351.81,802.24z"/>
	<linearGradient id="SVGID_42_" gradientUnits="userSpaceOnUse" x1="868.6193" y1="761.3892" x2="1105.036" y2="761.3892">
		<stop  offset="0.0252" style="stop-color:#77C9FF"/>
		<stop  offset="1" style="stop-color:#008AEB"/>
	</linearGradient>
	<path class="st41" d="M868.62,727.3l13.01,55.45c22.14-5.15,44.8-7.67,67.45-7.67c45.12,0,90.23,10.07,131.05,29.62l24.91-51.3
		c-48.44-23.32-102.18-35.33-155.9-35.32C922.06,718.07,894.98,721.13,868.62,727.3z"/>
	<linearGradient id="SVGID_43_" gradientUnits="userSpaceOnUse" x1="1045.2623" y1="934.8226" x2="1192.6228" y2="934.8226">
		<stop  offset="0.0252" style="stop-color:#77C9FF"/>
		<stop  offset="1" style="stop-color:#008AEB"/>
	</linearGradient>
	<path class="st42" d="M1045.26,920.01c34.98,21.79,61.83,55.41,75.54,94.23l71.82-24.92c-19.21-55-57.76-103.23-107.25-133.93
		L1045.26,920.01z"/>
	<linearGradient id="SVGID_44_" gradientUnits="userSpaceOnUse" x1="1174.4457" y1="755.4117" x2="1253.4904" y2="755.4117">
		<stop  offset="0.0252" style="stop-color:#77C9FF"/>
		<stop  offset="1" style="stop-color:#008AEB"/>
	</linearGradient>
	<path class="st43" d="M1253.49,726.02l-18.37-15.35l-60.68,77.46c4.92,3.86,9.77,7.87,14.48,12.02L1253.49,726.02z"/>
	<linearGradient id="SVGID_45_" gradientUnits="userSpaceOnUse" x1="1185.2316" y1="708.988" x2="1553.8679" y2="708.988">
		<stop  offset="0.0252" style="stop-color:#77C9FF"/>
		<stop  offset="1" style="stop-color:#008AEB"/>
	</linearGradient>
	<path class="st44" d="M1390.05,904.65l163.82-62.89c-52.25-137.21-153.43-255.66-280.99-328.44l-87.64,152.08
		C1278.57,718.75,1351.67,804.38,1390.05,904.65z"/>
	<linearGradient id="SVGID_46_" gradientUnits="userSpaceOnUse" x1="319.907" y1="1451.7854" x2="411.4905" y2="1451.7854">
		<stop  offset="0.0252" style="stop-color:#77C9FF"/>
		<stop  offset="1" style="stop-color:#008AEB"/>
	</linearGradient>
	<path class="st45" d="M319.91,1448.54c9.2,15.44,18.89,30.62,29.28,45.31l62.3-43.54c-9.28-13.13-17.99-26.72-26.23-40.59
		L319.91,1448.54z"/>
	<linearGradient id="SVGID_47_" gradientUnits="userSpaceOnUse" x1="445.4699" y1="1595.7756" x2="534.0559" y2="1595.7756">
		<stop  offset="0.0252" style="stop-color:#77C9FF"/>
		<stop  offset="1" style="stop-color:#008AEB"/>
	</linearGradient>
	<path class="st46" d="M486.07,1641.17l47.99-58.91c-12.62-10-24.51-20.97-36.34-31.89l-52.25,55.26
		C458.69,1617.79,471.94,1630.01,486.07,1641.17z"/>
	<linearGradient id="SVGID_48_" gradientUnits="userSpaceOnUse" x1="377.1733" y1="1528.1385" x2="468.2483" y2="1528.1385">
		<stop  offset="0.0252" style="stop-color:#77C9FF"/>
		<stop  offset="1" style="stop-color:#008AEB"/>
	</linearGradient>
	<path class="st47" d="M377.17,1531.49c11.54,13.79,22.87,27.79,35.34,40.77l55.74-51.76c-11.24-11.58-21.33-24.14-31.68-36.49
		L377.17,1531.49z"/>
	<linearGradient id="SVGID_49_" gradientUnits="userSpaceOnUse" x1="274.5959" y1="1368.2771" x2="364.9355" y2="1368.2771">
		<stop  offset="0.0252" style="stop-color:#77C9FF"/>
		<stop  offset="1" style="stop-color:#008AEB"/>
	</linearGradient>
	<path class="st48" d="M274.6,1358.57c6.77,16.67,14.65,32.8,22.63,48.93l67.71-34.52c-7.13-14.49-14.2-28.98-20.27-43.93
		L274.6,1358.57z"/>
	<linearGradient id="SVGID_50_" gradientUnits="userSpaceOnUse" x1="1515.9293" y1="1403.9333" x2="1607.0979" y2="1403.9333">
		<stop  offset="0.0252" style="stop-color:#77C9FF"/>
		<stop  offset="1" style="stop-color:#008AEB"/>
	</linearGradient>
	<path class="st49" d="M1607.1,1396.99l-68.16-33.56c-7.18,14.44-14.71,28.68-23,42.52l65.56,38.5
		C1590.73,1429.01,1599.14,1413.12,1607.1,1396.99z"/>
	<linearGradient id="SVGID_51_" gradientUnits="userSpaceOnUse" x1="1556.4127" y1="1317.1204" x2="1645.2816" y2="1317.1204">
		<stop  offset="0.0252" style="stop-color:#77C9FF"/>
		<stop  offset="1" style="stop-color:#008AEB"/>
	</linearGradient>
	<path class="st50" d="M1645.28,1303.78l-72.16-23.93c-4.73,15.39-10.97,30.29-16.71,45.35l70.18,29.19
		C1633.04,1337.6,1639.95,1320.94,1645.28,1303.78z"/>
	<linearGradient id="SVGID_52_" gradientUnits="userSpaceOnUse" x1="770.5865" y1="689.1702" x2="826.2118" y2="689.1702">
		<stop  offset="0.0252" style="stop-color:#77C9FF"/>
		<stop  offset="1" style="stop-color:#008AEB"/>
	</linearGradient>
	<path class="st51" d="M770.59,648.15l38.13,90.89c5.75-2.43,11.62-4.72,17.5-6.86L792.8,639.3L770.59,648.15z"/>
	<linearGradient id="SVGID_53_" gradientUnits="userSpaceOnUse" x1="1015.6024" y1="669.9981" x2="1056.8784" y2="669.9981">
		<stop  offset="0.0252" style="stop-color:#77C9FF"/>
		<stop  offset="1" style="stop-color:#008AEB"/>
	</linearGradient>
	<path class="st52" d="M1033.4,619.72l-17.8,96.66c6.18,1.16,12.31,2.42,18.42,3.9l22.85-95.84L1033.4,619.72z"/>
	<linearGradient id="SVGID_54_" gradientUnits="userSpaceOnUse" x1="812.5789" y1="676.5838" x2="859.8696" y2="676.5838">
		<stop  offset="0.0252" style="stop-color:#77C9FF"/>
		<stop  offset="1" style="stop-color:#008AEB"/>
	</linearGradient>
	<path class="st53" d="M812.58,632.88l29.15,94.09c6.03-1.86,12.07-3.57,18.14-5.18l-24.38-95.6L812.58,632.88z"/>
	<linearGradient id="SVGID_55_" gradientUnits="userSpaceOnUse" x1="730.2904" y1="705.33" x2="793.7984" y2="705.33">
		<stop  offset="0.0252" style="stop-color:#77C9FF"/>
		<stop  offset="1" style="stop-color:#008AEB"/>
	</linearGradient>
	<path class="st54" d="M730.29,667.38L777,754.22c5.53-2.99,11.13-5.83,16.8-8.53l-42.26-89.25L730.29,667.38z"/>
	<linearGradient id="SVGID_56_" gradientUnits="userSpaceOnUse" x1="899.8442" y1="662.5879" x2="929.317" y2="662.5879">
		<stop  offset="0.0252" style="stop-color:#77C9FF"/>
		<stop  offset="1" style="stop-color:#008AEB"/>
	</linearGradient>
	<path class="st55" d="M899.84,614.74l10.67,97.86c6.2-0.7,12.52-1.22,18.8-1.57l-5.62-98.47L899.84,614.74z"/>
	<linearGradient id="SVGID_57_" gradientUnits="userSpaceOnUse" x1="944.4578" y1="661.4" x2="968.386" y2="661.4">
		<stop  offset="0.0252" style="stop-color:#77C9FF"/>
		<stop  offset="1" style="stop-color:#008AEB"/>
	</linearGradient>
	<path class="st56" d="M945.61,710.44c1.36-0.02,2.7-0.03,4.05-0.03c4.92,0,9.82,0.08,14.8,0.26l3.92-98.5l-23.93-0.04
		L945.61,710.44z"/>
	<linearGradient id="SVGID_58_" gradientUnits="userSpaceOnUse" x1="855.7588" y1="667.698" x2="894.3008" y2="667.698">
		<stop  offset="0.0252" style="stop-color:#77C9FF"/>
		<stop  offset="1" style="stop-color:#008AEB"/>
	</linearGradient>
	<path class="st57" d="M855.76,621.73l20.04,96.42c6.11-1.33,12.28-2.43,18.5-3.41l-15.03-97.49L855.76,621.73z"/>
	<linearGradient id="SVGID_59_" gradientUnits="userSpaceOnUse" x1="980.7368" y1="663.7339" x2="1012.9243" y2="663.7339">
		<stop  offset="0.0252" style="stop-color:#77C9FF"/>
		<stop  offset="1" style="stop-color:#008AEB"/>
	</linearGradient>
	<path class="st58" d="M980.74,711.75c6.28,0.47,12.46,1.14,18.76,2l13.43-97.6l-23.83-2.44L980.74,711.75z"/>
	<linearGradient id="SVGID_60_" gradientUnits="userSpaceOnUse" x1="584.9476" y1="422.6494" x2="1058.2917" y2="422.6494">
		<stop  offset="0.0252" style="stop-color:#77C9FF"/>
		<stop  offset="1" style="stop-color:#008AEB"/>
	</linearGradient>
	<path class="st59" d="M1047.03,424.22l11.26-75.16c-35.52-5.33-71.39-7.98-107.23-7.98c-127.71,0-255.29,33.43-366.11,97.17
		l37.77,65.97c99.33-57.14,213.88-87.13,328.4-87.13C983.23,417.09,1015.28,419.45,1047.03,424.22z"/>
	<linearGradient id="SVGID_61_" gradientUnits="userSpaceOnUse" x1="496.0044" y1="512.2341" x2="582.1952" y2="512.2341">
		<stop  offset="0.0252" style="stop-color:#77C9FF"/>
		<stop  offset="1" style="stop-color:#008AEB"/>
	</linearGradient>
	<path class="st60" d="M496,498.2l47.03,59.74c12.86-9.77,25.63-19.57,39.16-28.39l-42.52-63.02
		C524.61,476.38,510.32,487.31,496,498.2z"/>
	<linearGradient id="SVGID_62_" gradientUnits="userSpaceOnUse" x1="1049.8442" y1="679.9966" x2="1099.87" y2="679.9966">
		<stop  offset="0.0252" style="stop-color:#77C9FF"/>
		<stop  offset="1" style="stop-color:#008AEB"/>
	</linearGradient>
	<path class="st61" d="M1076.96,629.9l-27.12,94.52c6.02,1.7,12.01,3.57,17.91,5.67l32.11-93.14L1076.96,629.9z"/>
	<linearGradient id="SVGID_63_" gradientUnits="userSpaceOnUse" x1="303.3325" y1="723.314" x2="394.8224" y2="723.314">
		<stop  offset="0.0252" style="stop-color:#77C9FF"/>
		<stop  offset="1" style="stop-color:#008AEB"/>
	</linearGradient>
	<path class="st62" d="M324.02,692.54c-7.22,11.85-13.88,24.04-20.69,36.11l67.03,35.83c6.07-10.66,11.94-21.54,18.35-32.05
		c1.96-3.25,3.98-6.5,6.11-9.64l-64.24-40.64C328.34,685.56,326.11,689.04,324.02,692.54z"/>
	<linearGradient id="SVGID_64_" gradientUnits="userSpaceOnUse" x1="356.8645" y1="644.3727" x2="448.0534" y2="644.3727">
		<stop  offset="0.0252" style="stop-color:#77C9FF"/>
		<stop  offset="1" style="stop-color:#008AEB"/>
	</linearGradient>
	<path class="st63" d="M356.86,643.36l61.51,44.62c9.16-13.3,19.67-25.53,29.68-38.22l-58.12-48.99
		C378.76,614.84,367.03,628.54,356.86,643.36z"/>
	<linearGradient id="SVGID_65_" gradientUnits="userSpaceOnUse" x1="421.4277" y1="573.5593" x2="510.9753" y2="573.5593">
		<stop  offset="0.0252" style="stop-color:#77C9FF"/>
		<stop  offset="1" style="stop-color:#008AEB"/>
	</linearGradient>
	<path class="st64" d="M421.43,565.98l54.83,52.67c11.07-11.73,22.72-22.82,34.71-33.6l-50.82-56.57
		C446.83,540.54,433.78,552.9,421.43,565.98z"/>
	<linearGradient id="SVGID_66_" gradientUnits="userSpaceOnUse" x1="1474.6716" y1="676.4424" x2="1566.3315" y2="676.4424">
		<stop  offset="0.0252" style="stop-color:#77C9FF"/>
		<stop  offset="1" style="stop-color:#008AEB"/>
	</linearGradient>
	<path class="st65" d="M1474.67,679.44c9.99,12.68,18.65,26.3,27.68,39.65l63.98-41.05c-9.99-14.9-19.74-30.09-30.85-44.25
		L1474.67,679.44z"/>
	<linearGradient id="SVGID_67_" gradientUnits="userSpaceOnUse" x1="1415.6713" y1="602.0883" x2="1506.1427" y2="602.0883">
		<stop  offset="0.0252" style="stop-color:#77C9FF"/>
		<stop  offset="1" style="stop-color:#008AEB"/>
	</linearGradient>
	<path class="st66" d="M1469.56,557.53l-53.89,53.6c11.28,11.45,22.33,23.24,32.75,35.52l57.72-49.42
		C1494.51,583.47,1482.2,570.29,1469.56,557.53z"/>
	<linearGradient id="SVGID_68_" gradientUnits="userSpaceOnUse" x1="1190.7374" y1="437.4277" x2="1268.1417" y2="437.4277">
		<stop  offset="0.0252" style="stop-color:#77C9FF"/>
		<stop  offset="1" style="stop-color:#008AEB"/>
	</linearGradient>
	<path class="st67" d="M1190.74,463.08c15.16,5.5,29.58,12.73,44.29,19.33l33.11-68.41c-16.33-7.41-32.51-15.4-49.42-21.55
		L1190.74,463.08z"/>
	<linearGradient id="SVGID_69_" gradientUnits="userSpaceOnUse" x1="1115.1625" y1="711.0198" x2="1180.9701" y2="711.0198">
		<stop  offset="0.0252" style="stop-color:#77C9FF"/>
		<stop  offset="1" style="stop-color:#008AEB"/>
	</linearGradient>
	<path class="st68" d="M1115.16,750.24c5.54,2.88,11.09,5.86,16.57,9.07l49.23-85.17l-21.03-11.41L1115.16,750.24z"/>
	<linearGradient id="SVGID_70_" gradientUnits="userSpaceOnUse" x1="1104.7532" y1="405.3344" x2="1174.5963" y2="405.3344">
		<stop  offset="0.0252" style="stop-color:#77C9FF"/>
		<stop  offset="1" style="stop-color:#008AEB"/>
	</linearGradient>
	<path class="st69" d="M1174.6,376.52c-16.99-5.86-34.47-10.17-51.87-14.74l-17.97,73.84c15.56,4.1,31.25,7.96,46.46,13.26
		L1174.6,376.52z"/>
	<linearGradient id="SVGID_71_" gradientUnits="userSpaceOnUse" x1="1083.1072" y1="693.7288" x2="1141.3536" y2="693.7288">
		<stop  offset="0.0252" style="stop-color:#77C9FF"/>
		<stop  offset="1" style="stop-color:#008AEB"/>
	</linearGradient>
	<path class="st70" d="M1119.31,644.35l-36.2,91.35c5.84,2.3,11.63,4.77,17.33,7.4l40.92-89.52L1119.31,644.35z"/>
</g>
<g>
	<linearGradient id="SVGID_72_" gradientUnits="userSpaceOnUse" x1="833.3203" y1="1073.6975" x2="1066.4564" y2="1073.6975">
		<stop  offset="0.0252" style="stop-color:#77D8FF"/>
		<stop  offset="1" style="stop-color:#00A1EB"/>
	</linearGradient>
	<path class="st71" d="M1066.46,1073.7c-0.04,64.37-52.19,116.57-116.57,116.57l0,0c-64.37,0-116.57-52.19-116.57-116.57l0,0
		c0-64.37,52.19-116.57,116.57-116.57l0,0C1014.26,957.13,1066.42,1009.32,1066.46,1073.7L1066.46,1073.7z M1056.78,1073.7
		c-0.09-59.05-47.86-106.8-106.9-106.91l0,0c-59.06,0.1-106.8,47.86-106.93,106.91l0,0c0.13,59.05,47.87,106.8,106.93,106.89l0,0
		C1008.95,1180.5,1056.69,1132.75,1056.78,1073.7L1056.78,1073.7L1056.78,1073.7z"/>
	<linearGradient id="SVGID_73_" gradientUnits="userSpaceOnUse" x1="816.18" y1="1085.0963" x2="1083.5408" y2="1085.0963">
		<stop  offset="0.0252" style="stop-color:#77D8FF"/>
		<stop  offset="1" style="stop-color:#00A1EB"/>
	</linearGradient>
	<path class="st72" d="M880.59,970.82c-33.04,22.3-54.72,60.04-54.72,102.89l0,0c0,19.12,4.32,37.21,12.03,53.39l0,0l-8.71,4.17
		c-8.33-17.44-13.01-36.97-13.01-57.56l0,0c0.04-46.16,23.44-86.88,59.02-110.88l0,0L880.59,970.82L880.59,970.82z M1083.54,1073.71
		c0,73.8-59.83,133.64-133.67,133.66l0,0c-31.64,0-60.75-11.04-83.66-29.43l0,0l6.05-7.54c21.25,17.08,48.23,27.3,77.61,27.3l0,0
		c68.5-0.12,123.88-55.52,124.02-124.01l0,0L1083.54,1073.71L1083.54,1073.71z M837.92,1127.12c0-0.01,0-0.02-0.02-0.02l0,0h0.02
		V1127.12L837.92,1127.12z"/>
	<linearGradient id="SVGID_74_" gradientUnits="userSpaceOnUse" x1="800.1335" y1="1073.8341" x2="1089.9329" y2="1073.8341">
		<stop  offset="0.0252" style="stop-color:#77D8FF"/>
		<stop  offset="1" style="stop-color:#00A1EB"/>
	</linearGradient>
	<path class="st73" d="M942.08,941.05c-25.13,1.47-50.06,10.03-71.77,26.22l0,0c-26.25,19.69-43.14,47.09-49.93,76.74l0,0V1044
		l-18.84-4.3c7.75-33.89,27.19-65.4,57.21-87.89l0,0c24.8-18.53,53.46-28.38,82.21-30.04l0,0L942.08,941.05L942.08,941.05z
		 M843.47,1153.24c26.13,34.94,66.03,53.33,106.54,53.35l0,0c27.66-0.01,55.53-8.62,79.42-26.5l0,0l11.58,15.48
		c-27.32,20.43-59.3,30.32-91,30.32l0,0c-46.31,0.02-92.09-21.1-121.98-61.08l0,0c-14.56-19.44-23.78-41.3-27.89-63.72l0,0
		l19.03-3.44C822.72,1117.19,830.74,1136.21,843.47,1153.24L843.47,1153.24z M1072.19,1125.75l17.74,7.54
		c-7.9,18.64-19.63,35.9-34.98,50.51l0,0l-13.29-13.99c13.37-12.76,23.59-27.8,30.49-44.06l0,0H1072.19L1072.19,1125.75z"/>
	<linearGradient id="SVGID_75_" gradientUnits="userSpaceOnUse" x1="694.8414" y1="1085.1151" x2="1204.9363" y2="1085.1151">
		<stop  offset="0.0252" style="stop-color:#77D8FF"/>
		<stop  offset="1" style="stop-color:#00A1EB"/>
	</linearGradient>
	<path class="st74" d="M757.25,917.78c-27.4,33.76-46.24,75.17-52.72,121.36l0,0c-1.64,11.75-2.43,23.4-2.45,34.88l0,0
		c0,3.96,0.11,7.9,0.26,11.79l0,0l0.02,0.02l-7.24,0.33c-0.21-4.03-0.26-8.08-0.28-12.14l0,0c-0.02-11.83,0.83-23.79,2.51-35.89l0,0
		c6.67-47.52,26.08-90.16,54.27-124.9l0,0L757.25,917.78L757.25,917.78z M1204.94,1073.39c0.02,11.85-0.79,23.82-2.53,35.86l0,0
		c-8.24,58.55-35.73,109.65-75.18,147.76l0,0l-5.05-5.22c38.33-37.02,65.07-86.64,73.07-143.55l0,0
		c1.68-11.69,2.45-23.32,2.45-34.85l0,0c0-29.45-5.24-57.98-14.97-84.59l0,0l6.81-2.48
		C1199.54,1013.7,1204.95,1043.07,1204.94,1073.39L1204.94,1073.39z"/>
	<linearGradient id="SVGID_76_" gradientUnits="userSpaceOnUse" x1="583.7785" y1="880.3617" x2="583.7978" y2="880.3617">
		<stop  offset="0.0252" style="stop-color:#77D8FF"/>
		<stop  offset="1" style="stop-color:#00A1EB"/>
	</linearGradient>
	<path class="st75" d="M583.8,880.37h-0.02c0,0,0,0,0-0.01l0,0L583.8,880.37L583.8,880.37z"/>
	<linearGradient id="SVGID_77_" gradientUnits="userSpaceOnUse" x1="667.7449" y1="1337.0415" x2="667.7643" y2="1337.0415">
		<stop  offset="0.0252" style="stop-color:#77D8FF"/>
		<stop  offset="1" style="stop-color:#00A1EB"/>
	</linearGradient>
	<path class="st76" d="M667.76,1337.05c0-0.01,0-0.01-0.02,0l0,0l0.02-0.02V1337.05L667.76,1337.05z"/>
	<linearGradient id="SVGID_78_" gradientUnits="userSpaceOnUse" x1="1489.4553" y1="909.9985" x2="1561.2023" y2="909.9985">
		<stop  offset="0.0252" style="stop-color:#77D8FF"/>
		<stop  offset="1" style="stop-color:#00A1EB"/>
	</linearGradient>
	<path class="st77" d="M1561.2,1021.27c-6.69-77.54-28.02-153.47-63.13-223.37l-8.62,4.32c34.54,68.82,55.55,143.56,62.15,219.88
		L1561.2,1021.27z"/>
	<linearGradient id="SVGID_79_" gradientUnits="userSpaceOnUse" x1="755.4824" y1="480.4854" x2="1043.6038" y2="480.4854">
		<stop  offset="0.0252" style="stop-color:#77D8FF"/>
		<stop  offset="1" style="stop-color:#00A1EB"/>
	</linearGradient>
	<path class="st78" d="M1042.15,476.74l1.45-9.55c-30.94-4.76-62.09-7.11-93.13-7.11c-66.34,0-132.22,10.74-194.99,31.63l3.05,9.17
		c61.77-20.58,126.64-31.15,191.94-31.16C981,469.74,1011.68,472.05,1042.15,476.74z"/>
	<linearGradient id="SVGID_80_" gradientUnits="userSpaceOnUse" x1="1484.1194" y1="1219.6813" x2="1563.4845" y2="1219.6813">
		<stop  offset="0.0252" style="stop-color:#77D8FF"/>
		<stop  offset="1" style="stop-color:#00A1EB"/>
	</linearGradient>
	<path class="st79" d="M1484.12,1355.37l8.54,4.52c46.95-88.76,69.99-184.92,70.82-280.31l-9.64-0.09
		C1553.02,1173.4,1530.32,1268.01,1484.12,1355.37z"/>
	<linearGradient id="SVGID_81_" gradientUnits="userSpaceOnUse" x1="346.098" y1="1314.1265" x2="470.5856" y2="1314.1265">
		<stop  offset="0.0252" style="stop-color:#77D8FF"/>
		<stop  offset="1" style="stop-color:#00A1EB"/>
	</linearGradient>
	<path class="st80" d="M355.62,1181.01l-9.52,1.73c17.2,95.14,56.74,186.14,116.85,264.51l7.64-5.89
		C411.43,1364.22,372.53,1274.66,355.62,1181.01z"/>
	<linearGradient id="SVGID_82_" gradientUnits="userSpaceOnUse" x1="500.68" y1="1557.0073" x2="692.3142" y2="1557.0073">
		<stop  offset="0.0252" style="stop-color:#77D8FF"/>
		<stop  offset="1" style="stop-color:#00A1EB"/>
	</linearGradient>
	<path class="st81" d="M688.2,1628.75l4.11-8.73c-25.79-12.22-51.06-26.41-75.57-42.64c-40.71-26.92-77.1-57.92-108.97-92.1
		l-7.09,6.56c32.4,34.75,69.37,66.27,110.72,93.6C636.29,1601.9,661.98,1616.33,688.2,1628.75z"/>
	<linearGradient id="SVGID_83_" gradientUnits="userSpaceOnUse" x1="1245.1752" y1="1507.9388" x2="1461.6238" y2="1507.9388">
		<stop  offset="0.0252" style="stop-color:#77D8FF"/>
		<stop  offset="1" style="stop-color:#00A1EB"/>
	</linearGradient>
	<path class="st82" d="M1461.62,1412.16l-8.05-5.34c-55,83.17-127,148.28-208.4,193.8l4.71,8.42
		C1332.59,1562.81,1405.77,1496.63,1461.62,1412.16z"/>
	<linearGradient id="SVGID_84_" gradientUnits="userSpaceOnUse" x1="1257.186" y1="553.8123" x2="1257.186" y2="553.8123">
		<stop  offset="0.0252" style="stop-color:#77D8FF"/>
		<stop  offset="1" style="stop-color:#00A1EB"/>
	</linearGradient>
	<polygon class="st83" points="1257.19,553.81 1257.19,553.82 1257.19,553.81 1257.19,553.81 	"/>
	<linearGradient id="SVGID_85_" gradientUnits="userSpaceOnUse" x1="1553.415" y1="1050.7594" x2="1553.415" y2="1050.7594">
		<stop  offset="0.0252" style="stop-color:#77D8FF"/>
		<stop  offset="1" style="stop-color:#00A1EB"/>
	</linearGradient>
	<path class="st84" d="M1553.42,1050.77v-0.02C1553.42,1050.75,1553.42,1050.76,1553.42,1050.77L1553.42,1050.77z"/>
	<linearGradient id="SVGID_86_" gradientUnits="userSpaceOnUse" x1="1467.262" y1="1189.4976" x2="1523.0947" y2="1189.4976">
		<stop  offset="0.0252" style="stop-color:#77D8FF"/>
		<stop  offset="1" style="stop-color:#00A1EB"/>
	</linearGradient>
	<path class="st85" d="M1494.24,1120.6c-3.7,43.07-12.6,86.21-26.98,128.49l27.4,9.33c15.18-44.54,24.55-89.96,28.43-135.35
		l-28.85-2.5V1120.6z"/>
	<linearGradient id="SVGID_87_" gradientUnits="userSpaceOnUse" x1="1261.5044" y1="1406.5217" x2="1487.9463" y2="1406.5217">
		<stop  offset="0.0252" style="stop-color:#77D8FF"/>
		<stop  offset="1" style="stop-color:#00A1EB"/>
	</linearGradient>
	<path class="st86" d="M1460.87,1266.8c-5.51,14.53-11.69,28.96-18.55,43.24c-42.48,88.51-105.59,160.26-180.81,212.41l16.48,23.82
		c79.25-54.91,145.78-130.59,190.43-223.7c7.22-15.01,13.73-30.2,19.53-45.52l-27.08-10.28V1266.8z"/>
	<linearGradient id="SVGID_88_" gradientUnits="userSpaceOnUse" x1="462.3649" y1="1387.8164" x2="507.94" y2="1387.8164">
		<stop  offset="0.0252" style="stop-color:#77D8FF"/>
		<stop  offset="1" style="stop-color:#00A1EB"/>
	</linearGradient>
	<path class="st87" d="M486.93,1363.72l-24.57,15.34c7,11.19,14.39,22.17,22.16,32.85l23.42-17
		C500.57,1384.75,493.57,1374.33,486.93,1363.72z"/>
	<linearGradient id="SVGID_89_" gradientUnits="userSpaceOnUse" x1="863.603" y1="1595.9214" x2="1244.6847" y2="1595.9214">
		<stop  offset="0.0252" style="stop-color:#77D8FF"/>
		<stop  offset="1" style="stop-color:#00A1EB"/>
	</linearGradient>
	<path class="st88" d="M949.51,1649.03c18.61,0,37.13-0.94,55.53-2.73l34.38-4.58c72.44-11.46,142.23-36.48,205.27-74.04
		l-14.84-24.87c-84.34,50.24-181.4,77.27-280.33,77.25c-27.12,0-54.36-2.02-81.55-6.15l-4.36,28.61
		C892.26,1646.9,920.96,1649.03,949.51,1649.03z"/>
	<linearGradient id="SVGID_90_" gradientUnits="userSpaceOnUse" x1="507.94" y1="1394.9153" x2="507.94" y2="1394.9153">
		<stop  offset="0.0252" style="stop-color:#77D8FF"/>
		<stop  offset="1" style="stop-color:#00A1EB"/>
	</linearGradient>
	<polygon class="st89" points="507.94,1394.92 507.94,1394.91 507.94,1394.91 507.94,1394.91 507.94,1394.92 	"/>
	<linearGradient id="SVGID_91_" gradientUnits="userSpaceOnUse" x1="713.1878" y1="715.0457" x2="713.2071" y2="715.0457">
		<stop  offset="0.0252" style="stop-color:#77D8FF"/>
		<stop  offset="1" style="stop-color:#00A1EB"/>
	</linearGradient>
	<path class="st90" d="M713.21,715.05l-0.02-0.01c0.02,0,0.02,0,0.02-0.01l0,0V715.05L713.21,715.05z"/>
	<linearGradient id="SVGID_92_" gradientUnits="userSpaceOnUse" x1="989.5425" y1="1501.495" x2="989.5618" y2="1501.495">
		<stop  offset="0.0252" style="stop-color:#77D8FF"/>
		<stop  offset="1" style="stop-color:#00A1EB"/>
	</linearGradient>
	<polygon class="st91" points="989.56,1501.5 989.54,1501.5 989.54,1501.5 989.54,1501.49 989.56,1501.5 	"/>
	<linearGradient id="SVGID_93_" gradientUnits="userSpaceOnUse" x1="1355.0305" y1="1194.9001" x2="1355.049" y2="1194.9001">
		<stop  offset="0.0252" style="stop-color:#77D8FF"/>
		<stop  offset="1" style="stop-color:#00A1EB"/>
	</linearGradient>
	<polygon class="st92" points="1355.05,1194.9 1355.03,1194.91 1355.03,1194.91 1355.03,1194.9 1355.05,1194.9 	"/>
	<linearGradient id="SVGID_94_" gradientUnits="userSpaceOnUse" x1="674.8351" y1="1064.6654" x2="1222.9055" y2="1064.6654">
		<stop  offset="0.0252" style="stop-color:#77D8FF"/>
		<stop  offset="1" style="stop-color:#00A1EB"/>
	</linearGradient>
	<path class="st93" d="M1104.19,844.85l-10.77,16.02c-42.63-28.72-92.9-43.84-143.76-43.84l0,0c-23.42,0.02-46.93,3.21-69.88,9.73
		l0,0l-0.02,0.01l-5.26-18.58c24.7-7.03,50.01-10.45,75.16-10.46l0,0C1004.34,797.73,1058.35,813.96,1104.19,844.85L1104.19,844.85z
		 M862.08,832.48c-14.33,5.22-28.42,11.83-42.01,19.82l0,0v0.02l-9.77-16.68c14.61-8.58,29.72-15.66,45.18-21.3l0,0L862.08,832.48
		L862.08,832.48z M734.99,1214.03c18.16,27.77,40.75,50.86,66.22,68.97l0,0h0.04l-11.2,15.73c-27.42-19.47-51.74-44.33-71.22-74.16
		l0,0c-25.93-39.72-40.33-83.7-43.99-127.93l0,0l19.27-1.58C697.48,1136.18,710.85,1177.02,734.99,1214.03L734.99,1214.03z
		 M1222.91,1113.86c-2.41,16.52-6.34,32.75-11.69,48.55l0,0l-18.29-6.19c4.98-14.71,8.64-29.83,10.88-45.18l0,0L1222.91,1113.86
		L1222.91,1113.86z M1186.33,1173.62C1186.33,1173.62,1186.33,1173.62,1186.33,1173.62L1186.33,1173.62l-0.02,0.01L1186.33,1173.62
		L1186.33,1173.62z M1204.11,1181.12c-20.61,48.91-55.57,92.47-103.35,123.62l0,0c-5.62,3.68-11.33,7.13-17.12,10.34l0,0
		l-9.37-16.89c5.39-2.99,10.71-6.19,15.93-9.62l0,0c44.5-29.03,76.93-69.46,96.13-114.96l0,0L1204.11,1181.12L1204.11,1181.12z
		 M858.51,1313.57h0.02l-6.88,18.04c-15.52-5.89-30.55-13.22-44.9-21.89l0,0l10.01-16.52
		C830.1,1301.27,844.09,1308.08,858.51,1313.57L858.51,1313.57z"/>
	<linearGradient id="SVGID_95_" gradientUnits="userSpaceOnUse" x1="707.6443" y1="1082.2256" x2="1189.1531" y2="1082.2256">
		<stop  offset="0.0252" style="stop-color:#77D8FF"/>
		<stop  offset="1" style="stop-color:#00A1EB"/>
	</linearGradient>
	<path class="st94" d="M815.99,870.13c-5.36,3.53-10.54,7.24-15.54,11.12l0,0l-2.96-3.81c5.11-3.96,10.37-7.73,15.88-11.34l0,0
		L815.99,870.13L815.99,870.13z M1189.15,1027.42h-0.02l0.02-0.02C1189.15,1027.42,1189.15,1027.42,1189.15,1027.42L1189.15,1027.42
		z M707.64,1100.31c0,0,0,0,0-0.02l0,0h0.02L707.64,1100.31L707.64,1100.31z M1117.78,1256.87c-4.75,4.37-9.73,8.56-14.86,12.6l0,0
		l-3-3.82c5.07-3.93,9.96-8.05,14.63-12.32l0,0L1117.78,1256.87L1117.78,1256.87z M1083.09,1277.68L1083.09,1277.68L1083.09,1277.68
		l-0.02-0.02L1083.09,1277.68L1083.09,1277.68z M1085.71,1281.73c-5.47,3.58-11.05,6.91-16.71,10l0,0l-2.32-4.22
		c5.54-3.04,11.01-6.32,16.4-9.81l0,0L1085.71,1281.73L1085.71,1281.73z M845.75,1293.99v0.02l-2.04,4.35
		c-5.88-2.75-11.63-5.76-17.29-8.99l0,0l2.39-4.19C834.36,1288.35,840.01,1291.28,845.75,1293.99L845.75,1293.99z"/>
	<linearGradient id="SVGID_96_" gradientUnits="userSpaceOnUse" x1="529.7752" y1="651.3262" x2="529.7945" y2="651.3262">
		<stop  offset="0.0252" style="stop-color:#77D8FF"/>
		<stop  offset="1" style="stop-color:#00A1EB"/>
	</linearGradient>
	<path class="st95" d="M529.79,651.33h-0.02c0,0,0,0,0-0.01l0,0L529.79,651.33L529.79,651.33z"/>
	<linearGradient id="SVGID_97_" gradientUnits="userSpaceOnUse" x1="394.219" y1="859.1058" x2="394.2373" y2="859.1058">
		<stop  offset="0.0252" style="stop-color:#77D8FF"/>
		<stop  offset="1" style="stop-color:#00A1EB"/>
	</linearGradient>
	<polygon class="st96" points="394.24,859.11 394.22,859.11 394.22,859.11 394.22,859.11 394.24,859.11 	"/>
	<linearGradient id="SVGID_98_" gradientUnits="userSpaceOnUse" x1="852.7042" y1="381.8444" x2="852.7235" y2="381.8444">
		<stop  offset="0.0252" style="stop-color:#77D8FF"/>
		<stop  offset="1" style="stop-color:#00A1EB"/>
	</linearGradient>
	<path class="st97" d="M852.72,381.86l-0.02-0.02c0,0,0-0.01,0.02-0.01l0,0V381.86L852.72,381.86z"/>
	<linearGradient id="SVGID_99_" gradientUnits="userSpaceOnUse" x1="616.4564" y1="459.8711" x2="616.4757" y2="459.8711">
		<stop  offset="0.0252" style="stop-color:#77D8FF"/>
		<stop  offset="1" style="stop-color:#00A1EB"/>
	</linearGradient>
	<path class="st98" d="M616.48,459.87l-0.02,0.01C616.46,459.87,616.46,459.87,616.48,459.87L616.48,459.87L616.48,459.87z"/>
	<linearGradient id="SVGID_100_" gradientUnits="userSpaceOnUse" x1="1717.9535" y1="1105.9747" x2="1739.2036" y2="1105.9747">
		<stop  offset="0.0252" style="stop-color:#77D8FF"/>
		<stop  offset="1" style="stop-color:#00A1EB"/>
	</linearGradient>
	<path class="st99" d="M1739.2,1072.92c0-27.57-1.47-55.21-4.39-82.82l-7.18,0.79c2.9,27.32,4.34,54.71,4.34,82.02
		c0,49.62-4.71,99.02-14.01,147.55l7.13,1.37C1734.43,1172.87,1739.2,1123,1739.2,1072.92z"/>
	<linearGradient id="SVGID_101_" gradientUnits="userSpaceOnUse" x1="1713.7858" y1="937.8917" x2="1732.548" y2="937.8917">
		<stop  offset="0.0252" style="stop-color:#77D8FF"/>
		<stop  offset="1" style="stop-color:#00A1EB"/>
	</linearGradient>
	<path class="st100" d="M1725.36,971.8l7.18-0.94c-2.9-22.36-6.81-44.67-11.69-66.87l-7.07,1.58
		C1718.61,927.53,1722.48,949.63,1725.36,971.8z"/>
	<linearGradient id="SVGID_102_" gradientUnits="userSpaceOnUse" x1="1628.4059" y1="1362.1819" x2="1716.8596" y2="1362.1819">
		<stop  offset="0.0252" style="stop-color:#77D8FF"/>
		<stop  offset="1" style="stop-color:#00A1EB"/>
	</linearGradient>
	<path class="st101" d="M1716.86,1259.74l-7.03-1.69c-17.31,71.34-44.6,140.33-81.42,204.65l6.3,3.6
		C1671.83,1401.38,1699.4,1331.77,1716.86,1259.74z"/>
	<linearGradient id="SVGID_103_" gradientUnits="userSpaceOnUse" x1="404.6273" y1="512.9838" x2="404.6466" y2="512.9838">
		<stop  offset="0.0252" style="stop-color:#77D8FF"/>
		<stop  offset="1" style="stop-color:#00A1EB"/>
	</linearGradient>
	<polygon class="st102" points="404.65,512.99 404.63,512.97 404.63,512.97 404.63,512.97 404.65,512.99 	"/>
	<linearGradient id="SVGID_104_" gradientUnits="userSpaceOnUse" x1="1713.7858" y1="905.5532" x2="1713.7858" y2="905.5532">
		<stop  offset="0.0252" style="stop-color:#77D8FF"/>
		<stop  offset="1" style="stop-color:#00A1EB"/>
	</linearGradient>
	<path class="st103" d="M1713.79,905.57v-0.03C1713.79,905.54,1713.79,905.55,1713.79,905.57L1713.79,905.57z"/>
	<linearGradient id="SVGID_105_" gradientUnits="userSpaceOnUse" x1="1727.6262" y1="990.8867" x2="1727.6262" y2="990.8867">
		<stop  offset="0.0252" style="stop-color:#77D8FF"/>
		<stop  offset="1" style="stop-color:#00A1EB"/>
	</linearGradient>
	<path class="st104" d="M1727.63,990.9v-0.03C1727.63,990.88,1727.63,990.89,1727.63,990.9L1727.63,990.9z"/>
	<linearGradient id="SVGID_106_" gradientUnits="userSpaceOnUse" x1="1709.8073" y1="1258.049" x2="1709.8265" y2="1258.049">
		<stop  offset="0.0252" style="stop-color:#77D8FF"/>
		<stop  offset="1" style="stop-color:#00A1EB"/>
	</linearGradient>
	<polygon class="st105" points="1709.83,1258.04 1709.83,1258.05 1709.83,1258.05 1709.81,1258.04 1709.83,1258.04 	"/>
	<linearGradient id="SVGID_107_" gradientUnits="userSpaceOnUse" x1="648.7762" y1="1073.7115" x2="1467.4126" y2="1073.7115">
		<stop  offset="0.0252" style="stop-color:#77D8FF"/>
		<stop  offset="1" style="stop-color:#00A1EB"/>
	</linearGradient>
	<path class="st106" d="M1116.48,583.79l-1.53,4.56c-53.23-18.04-109.2-27.34-165.56-27.32l0,0c-20.63,0-41.29,1.24-61.92,3.74l0,0
		l-0.57-4.79c20.82-2.53,41.67-3.78,62.49-3.79l0,0C1006.29,556.19,1062.78,565.55,1116.48,583.79L1116.48,583.79z M868.45,567.45
		c-37.51,6.01-74.69,16.27-110.82,30.92l0,0l-1.81-4.48c36.47-14.8,73.99-25.14,111.87-31.21l0,0L868.45,567.45L868.45,567.45z
		 M1443.43,917.77l-4.58,1.48c-11.43-36.02-27-71.29-46.88-105.09l0,0h-0.02l4.19-2.45C1416.2,845.82,1431.93,881.41,1443.43,917.77
		L1443.43,917.77z M1467.41,1073.22c0,31.53-2.87,62.9-8.54,93.76l0,0l-4.75-0.86c5.62-30.58,8.47-61.69,8.45-92.9l0,0
		c0.02-45.35-6-90.96-18.29-135.54l0,0l4.68-1.3C1461.34,981.41,1467.41,1027.43,1467.41,1073.22L1467.41,1073.22z M1425.31,1278.17
		c-2.55,5.92-5.2,11.8-7.98,17.66l0,0l-4.37-2.07c2.77-5.8,5.37-11.62,7.9-17.52l0,0L1425.31,1278.17L1425.31,1278.17z
		 M1274.25,1476.91c-13.2,10.58-27,20.6-41.45,30.02l0,0c-5.43,3.56-10.94,7-16.44,10.32l0,0l-2.49-4.15
		c5.47-3.29,10.9-6.68,16.31-10.2l0,0c14.29-9.34,27.96-19.28,41.03-29.75l0,0L1274.25,1476.91L1274.25,1476.91z M862.57,1578.84
		h-0.02l-0.81,4.77c-76.05-13.17-149.06-43.23-212.96-88.92l0,0l2.79-3.94C714.89,1536.02,787.22,1565.81,862.57,1578.84
		L862.57,1578.84z M950.34,1586.4c15.41-0.01,30.83-0.71,46.24-2.08l0,0l0.45,4.79c-15.56,1.41-31.13,2.12-46.69,2.12l0,0
		c-23.25,0-46.46-1.58-69.43-4.68l0,0l0.66-4.79C904.31,1584.85,927.3,1586.39,950.34,1586.4L950.34,1586.4z"/>
	<linearGradient id="SVGID_108_" gradientUnits="userSpaceOnUse" x1="451.5415" y1="1194.4613" x2="451.5552" y2="1194.4613">
		<stop  offset="0.0252" style="stop-color:#77D8FF"/>
		<stop  offset="1" style="stop-color:#00A1EB"/>
	</linearGradient>
	<path class="st107" d="M451.54,1194.47c0.02-0.01,0.02-0.01,0-0.02l0,0l0,0V1194.47L451.54,1194.47z"/>
	<linearGradient id="SVGID_109_" gradientUnits="userSpaceOnUse" x1="996.5766" y1="1584.3156" x2="996.595" y2="1584.3156">
		<stop  offset="0.0252" style="stop-color:#77D8FF"/>
		<stop  offset="1" style="stop-color:#00A1EB"/>
	</linearGradient>
	<polygon class="st108" points="996.59,1584.31 996.58,1584.32 996.58,1584.32 996.58,1584.31 996.59,1584.31 	"/>
	<linearGradient id="SVGID_110_" gradientUnits="userSpaceOnUse" x1="504.8661" y1="1351.1223" x2="1261.5044" y2="1351.1223">
		<stop  offset="0.0252" style="stop-color:#77D8FF"/>
		<stop  offset="1" style="stop-color:#00A1EB"/>
	</linearGradient>
	<path class="st109" d="M526.29,1233.52c28.38,75.21,74.61,138.41,132.05,186.67l0,0l-3.11,3.7
		c-58.06-48.76-104.78-112.66-133.46-188.65l0,0c-6.84-18.17-12.48-36.51-16.9-54.91l0,0l4.69-1.13
		C513.92,1197.39,519.5,1215.55,526.29,1233.52L526.29,1233.52z M1261.5,1408.94c-28.02,26.05-59.62,48.86-94.47,67.58l0,0
		l-2.28-4.27c34.47-18.51,65.73-41.09,93.47-66.84l0,0L1261.5,1408.94L1261.5,1408.94z M864.11,1518.31l-0.92,4.74
		c-38.24-7.42-75.31-19.68-110.29-36.34l0,0l2.06-4.37C789.59,1498.85,826.31,1510.98,864.11,1518.31L864.11,1518.31z"/>
	<linearGradient id="SVGID_111_" gradientUnits="userSpaceOnUse" x1="1318.431" y1="810.5422" x2="1318.4495" y2="810.5422">
		<stop  offset="0.0252" style="stop-color:#77D8FF"/>
		<stop  offset="1" style="stop-color:#00A1EB"/>
	</linearGradient>
	<path class="st110" d="M1318.45,810.54l-0.02,0.02v-0.04C1318.43,810.53,1318.43,810.53,1318.45,810.54L1318.45,810.54z"/>
	<linearGradient id="SVGID_112_" gradientUnits="userSpaceOnUse" x1="568.8636" y1="829.0916" x2="568.9012" y2="829.0916">
		<stop  offset="0.0252" style="stop-color:#77D8FF"/>
		<stop  offset="1" style="stop-color:#00A1EB"/>
	</linearGradient>
	<path class="st111" d="M568.9,829.1h-0.04c0-0.01,0.02-0.01,0.02-0.01l0,0L568.9,829.1L568.9,829.1z"/>
	<linearGradient id="SVGID_113_" gradientUnits="userSpaceOnUse" x1="792.4217" y1="1080.4198" x2="1107.5249" y2="1080.4198">
		<stop  offset="0.0252" style="stop-color:#77D8FF"/>
		<stop  offset="1" style="stop-color:#00A1EB"/>
	</linearGradient>
	<path class="st112" d="M1062.1,962.98l-5.17,5.08c-13.54-13.77-29.28-24.46-46.23-31.93l0,0l2.9-6.62
		C1031.38,937.34,1047.9,948.57,1062.1,962.98L1062.1,962.98z M1010.7,936.13l-0.02,0.02v-0.02H1010.7L1010.7,936.13z
		 M1076.09,979.31c21.17,28.29,31.43,61.43,31.43,94.27l0,0c0,48-21.87,95.42-63.26,126.34l0,0c-28.32,21.17-61.43,31.4-94.26,31.4
		l0,0c-47.97,0-95.37-21.84-126.34-63.26l0,0c-10.05-13.4-17.61-27.9-22.82-42.94l0,0l6.84-2.36c4.96,14.34,12.16,28.15,21.76,40.97
		l0,0c29.57,39.51,74.75,60.33,120.55,60.33l0,0c31.32,0,62.9-9.76,89.93-29.94l0,0c39.5-29.51,60.34-74.74,60.34-120.55l0,0
		c0-31.34-9.75-62.9-29.96-89.94l0,0c-2.24-3-4.56-5.86-6.96-8.65l0,0l5.45-4.75C1071.32,973.15,1073.75,976.18,1076.09,979.31
		L1076.09,979.31z M800.38,1057.74c-0.34,3.11-0.59,6.25-0.74,9.4l0,0l-7.22-0.33c0.15-3.3,0.4-6.57,0.75-9.85l0,0L800.38,1057.74
		L800.38,1057.74z M799.66,1067.14h-0.02l0,0l0,0H799.66L799.66,1067.14z"/>
	<linearGradient id="SVGID_114_" gradientUnits="userSpaceOnUse" x1="789.2348" y1="1073.712" x2="1107.6765" y2="1073.712">
		<stop  offset="0.0252" style="stop-color:#77D8FF"/>
		<stop  offset="1" style="stop-color:#00A1EB"/>
	</linearGradient>
	<path class="st113" d="M1055.77,914.46l-16.05,24.14c-26.83-17.84-58.25-27.1-89.98-27.1l0,0c-32.45,0-65.07,9.66-93.45,29.73l0,0
		l-16.73-23.66c33.37-23.6,71.97-35.03,110.18-35.03l0,0C987.07,882.54,1024.09,893.42,1055.77,914.46L1055.77,914.46z
		 M849.18,946.52c-14.31,11.35-26.19,24.6-35.6,39.16l0,0L789.23,970c11.11-17.19,25.14-32.86,41.97-46.17l0,0L849.18,946.52
		L849.18,946.52z M813.6,985.71l-0.02-0.01v-0.01l0,0L813.6,985.71L813.6,985.71z M1107.68,1181.71
		c-11.54,16.84-26,32.11-43.22,44.99l0,0l-17.35-23.18c14.65-10.97,26.91-23.9,36.68-38.17l0,0L1107.68,1181.71L1107.68,1181.71z
		 M819.97,1170.83c1.34,1.8,2.71,3.56,4.09,5.29l0,0h0.06l-22.5,18.27c-1.66-2.03-3.28-4.1-4.85-6.23l0,0
		c-0.51-0.67-1-1.35-1.53-2.05l0,0l23.42-17.05C819.1,1169.67,819.54,1170.23,819.97,1170.83L819.97,1170.83z M1064.36,1226.77
		c-34.32,25.67-74.54,38.13-114.36,38.13l0,0c-35.62-0.02-70.94-9.94-101.67-29.17l0,0l15.39-24.54
		c26.02,16.3,56.06,24.75,86.29,24.75l0,0c33.83-0.03,67.81-10.51,97-32.35l0,0L1064.36,1226.77L1064.36,1226.77z"/>
	<linearGradient id="SVGID_115_" gradientUnits="userSpaceOnUse" x1="1543.8177" y1="928.7839" x2="1543.8361" y2="928.7839">
		<stop  offset="0.0252" style="stop-color:#77D8FF"/>
		<stop  offset="1" style="stop-color:#00A1EB"/>
	</linearGradient>
	<path class="st114" d="M1543.82,928.79l0.02,0.01v-0.03C1543.82,928.78,1543.82,928.79,1543.82,928.79L1543.82,928.79z"/>
	<linearGradient id="SVGID_116_" gradientUnits="userSpaceOnUse" x1="1152.2147" y1="502.7454" x2="1278.6447" y2="502.7454">
		<stop  offset="0.0252" style="stop-color:#77D8FF"/>
		<stop  offset="1" style="stop-color:#00A1EB"/>
	</linearGradient>
	<path class="st115" d="M1278.64,527.23c-38.5-23.18-79.78-42.47-123.34-57.25l-3.09,9.14c42.88,14.55,83.51,33.55,121.41,56.38
		L1278.64,527.23z"/>
	<linearGradient id="SVGID_117_" gradientUnits="userSpaceOnUse" x1="1372.8495" y1="1458.7858" x2="1510.7247" y2="1458.7858">
		<stop  offset="0.0252" style="stop-color:#77D8FF"/>
		<stop  offset="1" style="stop-color:#00A1EB"/>
	</linearGradient>
	<path class="st116" d="M1372.85,1537.76l6.52,7.16c52.42-47.76,97.03-104.31,131.35-167.67l-8.49-4.6
		C1468.45,1435.06,1424.5,1490.75,1372.85,1537.76z"/>
	<linearGradient id="SVGID_118_" gradientUnits="userSpaceOnUse" x1="857.8335" y1="444.5883" x2="916.3628" y2="444.5883">
		<stop  offset="0.0252" style="stop-color:#77D8FF"/>
		<stop  offset="1" style="stop-color:#00A1EB"/>
	</linearGradient>
	<path class="st117" d="M916.36,446.59l-0.47-9.64c-19.57,1.01-38.92,2.92-58.06,5.7l1.36,9.56h0.04
		C878.05,449.48,897.11,447.61,916.36,446.59z"/>
	<linearGradient id="SVGID_119_" gradientUnits="userSpaceOnUse" x1="441.7172" y1="1536.6049" x2="626.3936" y2="1536.6049">
		<stop  offset="0.0252" style="stop-color:#77D8FF"/>
		<stop  offset="1" style="stop-color:#00A1EB"/>
	</linearGradient>
	<path class="st118" d="M626.39,1612.08v-0.03c-69.01-41.51-128.98-95.77-177-159.16l-7.67,5.84
		c48.74,64.35,109.63,119.42,179.72,161.59L626.39,1612.08z"/>
	<linearGradient id="SVGID_120_" gradientUnits="userSpaceOnUse" x1="763.3458" y1="1098.0081" x2="1138.1475" y2="1098.0081">
		<stop  offset="0.0252" style="stop-color:#77D8FF"/>
		<stop  offset="1" style="stop-color:#00A1EB"/>
	</linearGradient>
	<path class="st119" d="M1100.64,960.97c25.29,33.81,37.5,73.39,37.5,112.6l0,0c0,57.3-26.1,113.95-75.54,150.9l0,0
		c-33.81,25.28-73.39,37.5-112.57,37.5l0,0c-57.32,0-113.93-26.09-150.92-75.52l0,0c-19.86-26.57-31.64-56.67-35.77-87.35l0,0
		l4.77-0.67c4.04,29.91,15.5,59.24,34.86,85.12l0,0c36.05,48.2,91.21,73.59,147.04,73.59l0,0c38.22,0,76.73-11.88,109.67-36.53l0,0
		c48.21-36.01,73.61-91.15,73.61-147.03l0,0c0-38.22-11.88-76.72-36.54-109.7l0,0c-7.22-9.67-15.22-18.42-23.82-26.21l0,0v-0.03
		l3.22-3.56C1085.03,942.07,1093.21,951.05,1100.64,960.97L1100.64,960.97z"/>
</g>
</svg>
